#N canvas 259 39 899 761 10;
#X obj 156 146 table kick;
#X obj 156 127 soundfiler;
#X msg 156 65 read -resize TDDC_Kick_VinylRevo_01.wav kick;
#X obj 353 514 tabplay~;
#X msg 353 494 set kick;
#X obj 412 494 bng 15 250 50 0 empty empty empty 17 7 0 10 -262144
-1 -1;
#X obj 449 561 *~;
#X obj 222 146 table snare;
#X obj 294 146 table hi-hat;
#X msg 164 86 read -resize JUST_snare_rag.wav snare;
#X msg 175 107 read -resize IG_HAT44.wav hi-hat;
#X obj 433 515 tabplay~;
#X obj 497 494 bng 15 250 50 0 empty empty empty 17 7 0 10 -262144
-1 -1;
#X msg 433 494 set snare;
#X obj 519 514 tabplay~;
#X obj 590 494 bng 15 250 50 0 empty empty empty 17 7 0 10 -262144
-1 -1;
#X msg 519 494 set hi-hat;
#X obj 438 240 hradio 15 1 0 16 empty empty empty 0 -8 0 10 -262144
-1 -1 1;
#X obj 438 192 counter;
#X obj 438 218 % 16;
#X obj 534 404 sel 0 1 2 3 4 5 6 7 8 9 10 11 12 13 14 15;
#X text 440 239 1;
#X text 500 239 2;
#X text 560 239 3;
#X text 620 239 4;
#X obj 474 646 outlet~;
#X obj 438 145 inlet;
#X obj 671 502 inlet;
#X floatatom 684 526 5 0 0 0 - - -;
#X obj 6 26 loadbang;
#X obj 502 329 moses 20;
#X obj 448 293 +;
#X msg 752 292 20;
#X msg 716 257 0;
#X obj 274 405 sel 0 1 2 3 4 5 6 7 8 9 10 11 12 13 14 15;
#X obj 544 366 % 16;
#X obj 807 269 bng 15 250 50 0 empty empty empty 17 7 0 10 -262144
-1 -1;
#X msg 787 302 0;
#X obj 738 231 bng 15 250 50 0 empty empty empty 17 7 0 10 -262144
-1 -1;
#X text 756 231 hip hop beat;
#X text 824 270 house beat;
#X obj 796 152 inlet;
#X obj 787 179 sel 0 1;
#X connect 2 0 1 0;
#X connect 3 0 6 0;
#X connect 4 0 3 0;
#X connect 5 0 3 0;
#X connect 6 0 25 0;
#X connect 9 0 1 0;
#X connect 10 0 1 0;
#X connect 11 0 6 0;
#X connect 12 0 11 0;
#X connect 13 0 11 0;
#X connect 14 0 6 0;
#X connect 15 0 14 0;
#X connect 16 0 14 0;
#X connect 17 0 31 0;
#X connect 18 0 19 0;
#X connect 19 0 17 0;
#X connect 20 0 5 0;
#X connect 20 2 15 0;
#X connect 20 4 12 0;
#X connect 20 4 5 0;
#X connect 20 6 15 0;
#X connect 20 8 5 0;
#X connect 20 10 15 0;
#X connect 20 12 12 0;
#X connect 20 12 5 0;
#X connect 20 14 15 0;
#X connect 26 0 18 0;
#X connect 27 0 6 1;
#X connect 27 0 28 0;
#X connect 29 0 2 0;
#X connect 29 0 10 0;
#X connect 29 0 9 0;
#X connect 29 0 4 0;
#X connect 29 0 16 0;
#X connect 29 0 13 0;
#X connect 30 0 34 0;
#X connect 30 1 35 0;
#X connect 31 0 30 0;
#X connect 32 0 31 1;
#X connect 33 0 31 1;
#X connect 33 0 17 0;
#X connect 34 0 5 0;
#X connect 34 0 15 0;
#X connect 34 2 15 0;
#X connect 34 4 15 0;
#X connect 34 4 12 0;
#X connect 34 6 15 0;
#X connect 34 7 5 0;
#X connect 34 8 15 0;
#X connect 34 10 15 0;
#X connect 34 10 5 0;
#X connect 34 12 15 0;
#X connect 34 12 12 0;
#X connect 34 14 15 0;
#X connect 35 0 20 0;
#X connect 36 0 37 0;
#X connect 36 0 32 0;
#X connect 37 0 17 0;
#X connect 38 0 33 0;
#X connect 41 0 42 0;
#X connect 42 0 38 0;
#X connect 42 1 36 0;
