#N canvas 491 39 899 761 10;
#X obj 76 96 table kick;
#X obj 76 77 soundfiler;
#X msg 76 15 read -resize TDDC_Kick_VinylRevo_01.wav kick;
#X obj 190 359 dac~;
#X obj 190 313 tabplay~;
#X msg 190 293 set kick;
#X obj 249 293 bng 15 250 50 0 empty empty empty 17 7 0 10 -262144
-1 -1;
#X obj 190 335 *~;
#X floatatom 223 339 5 0 1 0 - - -;
#X obj 142 96 table snare;
#X obj 214 96 table hi-hat;
#X msg 84 36 read -resize JUST_snare_rag.wav snare;
#X msg 95 57 read -resize IG_HAT44.wav hi-hat;
#X obj 270 357 dac~;
#X obj 270 314 tabplay~;
#X obj 334 293 bng 15 250 50 0 empty empty empty 17 7 0 10 -262144
-1 -1;
#X obj 270 336 *~;
#X floatatom 303 339 5 0 1 0 - - -;
#X msg 270 293 set snare;
#X obj 356 357 dac~;
#X obj 356 313 tabplay~;
#X obj 427 293 bng 15 250 50 0 empty empty empty 17 7 0 10 -262144
-1 -1;
#X obj 356 335 *~;
#X floatatom 390 338 5 0 1 0 - - -;
#X msg 356 293 set hi-hat;
#X obj 335 123 tgl 15 0 empty empty empty 17 7 0 10 -262144 -1 -1 0
1;
#X obj 285 172 metro;
#X obj 327 172 metro;
#X obj 366 172 metro;
#X msg 408 119 400;
#X msg 424 138 800;
#X msg 398 101 200;
#X connect 2 0 1 0;
#X connect 4 0 7 0;
#X connect 5 0 4 0;
#X connect 6 0 4 0;
#X connect 7 0 3 0;
#X connect 7 0 3 1;
#X connect 8 0 7 1;
#X connect 11 0 1 0;
#X connect 12 0 1 0;
#X connect 14 0 16 0;
#X connect 15 0 14 0;
#X connect 16 0 13 0;
#X connect 16 0 13 1;
#X connect 17 0 16 1;
#X connect 18 0 14 0;
#X connect 20 0 22 0;
#X connect 21 0 20 0;
#X connect 22 0 19 0;
#X connect 22 0 19 1;
#X connect 23 0 22 1;
#X connect 24 0 20 0;
#X connect 25 0 26 0;
#X connect 25 0 27 0;
#X connect 25 0 28 0;
#X connect 26 0 6 0;
#X connect 27 0 15 0;
#X connect 28 0 21 0;
#X connect 29 0 27 1;
#X connect 30 0 26 1;
#X connect 31 0 28 1;
