#N canvas 639 214 574 678 10;
#X obj 157 15 inlet~;
#X obj 140 42 all_pass_filter~;
#X obj 141 66 all_pass_filter~;
#X obj 141 113 all_pass_filter~;
#X obj 141 146 all_pass_filter~;
#X obj 140 177 all_pass_filter~;
#X obj 140 213 all_pass_filter~;
#X obj 134 250 all_pass_filter~;
#X obj 144 277 all_pass_filter~;
#X obj 142 331 all_pass_filter~;
#X obj 138 369 outlet~;
#X obj 275 13 inlet~;
#X connect 0 0 1 0;
#X connect 1 0 2 0;
#X connect 2 0 3 0;
#X connect 3 0 4 0;
#X connect 4 0 5 0;
#X connect 5 0 6 0;
#X connect 6 0 7 0;
#X connect 7 0 8 0;
#X connect 8 0 9 0;
#X connect 9 0 10 0;
#X connect 11 0 1 1;
#X connect 11 0 2 1;
#X connect 11 0 3 1;
#X connect 11 0 4 1;
#X connect 11 0 5 1;
#X connect 11 0 6 1;
#X connect 11 0 7 1;
#X connect 11 0 8 1;
#X connect 11 0 9 1;
