#N canvas 881 103 974 686 10;
#X obj 155 33 inlet~;
#X obj 161 85 delwrite~ buff1 1000;
#X obj 201 198 *~ 0.6;
#X floatatom 200 112 5 0 0 0 - - -;
#X obj 200 132 sig~;
#X obj 200 153 vd~ buff1;
#X floatatom 238 175 5 0 0 0 - - -;
#X obj 202 258 *~ 0.3;
#X floatatom 253 230 5 0 0.5 0 - - -;
#X obj 204 291 hip~ 2;
#X obj 205 328 outlet~;
#X connect 0 0 1 0;
#X connect 2 0 1 0;
#X connect 2 0 7 0;
#X connect 3 0 4 0;
#X connect 4 0 5 0;
#X connect 5 0 2 0;
#X connect 6 0 2 1;
#X connect 7 0 9 0;
#X connect 8 0 7 1;
#X connect 9 0 10 0;
