#N canvas 227 155 738 501 10;
#X obj 196 268 outlet~;
#X obj 303 48 sel 0 1 2;
#X obj 303 25 inlet;
#X obj 103 225 *~;
#X obj 267 205 *~;
#X obj 353 224 *~;
#X msg 337 174 0;
#X msg 284 179 0;
#X msg 272 148 1;
#X msg 327 149 1;
#X msg 100 175 1;
#X msg 114 198 0;
#X text 340 24 Waveform Selector;
#X obj 59 176 lop~;
#X obj 218 159 vcf~;
#X obj 391 151 hip~;
#X obj 191 51 inlet~;
#X obj 532 75 inlet;
#X text 570 74 Q;
#X obj 495 44 inlet;
#X text 534 44 Cutoff;
#X obj 445 94 line;
#X msg 470 72 \$1 50;
#X msg 512 102 \$1 50;
#X obj 490 125 line;
#X connect 1 0 10 0;
#X connect 1 0 7 0;
#X connect 1 0 6 0;
#X connect 1 1 8 0;
#X connect 1 1 11 0;
#X connect 1 1 6 0;
#X connect 1 2 9 0;
#X connect 1 2 11 0;
#X connect 1 2 7 0;
#X connect 2 0 1 0;
#X connect 3 0 0 0;
#X connect 4 0 0 0;
#X connect 5 0 0 0;
#X connect 6 0 5 1;
#X connect 7 0 4 1;
#X connect 8 0 4 1;
#X connect 9 0 5 1;
#X connect 10 0 3 1;
#X connect 11 0 3 1;
#X connect 13 0 3 0;
#X connect 14 0 4 0;
#X connect 15 0 5 0;
#X connect 16 0 13 0;
#X connect 16 0 14 0;
#X connect 16 0 15 0;
#X connect 17 0 23 0;
#X connect 19 0 22 0;
#X connect 21 0 15 1;
#X connect 21 0 14 1;
#X connect 21 0 13 1;
#X connect 22 0 21 0;
#X connect 23 0 24 0;
#X connect 24 0 14 2;
