#N canvas 0 -877 1440 778 10;
#N canvas 0 22 450 278 (subpatch) 0;
#X array melody 8 float 3;
#A 0 60 62 63 65 67 68 70 72;
#X coords 0 80 8 0 200 140 1;
#X restore 131 387 graph;
#X msg 38 580 \; melody bounds 0 80 8 0;
#X obj 469 190 % 8;
#X obj 469 216 tabread melody;
#X msg 38 616 \; melody xlabel -0.05 0 1 2 3 4 5 6 7 8;
#X msg 130 249 \; melody 0 60 62 64 65 67 69 71 72;
#X msg 38 544 \; melody resize 8;
#X obj 469 166 random 100;
#X msg 413 139 seed 20;
#X obj 467 468 +;
#X floatatom 518 487 5 0 0 0 - - -;
#X floatatom 524 321 5 0 0 0 - - -;
#X msg 688 216 -1;
#X msg 688 195 -2;
#X msg 688 175 -3;
#X msg 688 235 0;
#X msg 688 255 1;
#X msg 688 274 2;
#X msg 688 293 3;
#X msg 688 312 4;
#X msg 688 331 5;
#X msg 688 350 6;
#X msg 688 369 7;
#X text 717 176 A;
#X text 717 196 A#;
#X text 717 217 B;
#X text 717 235 C;
#X text 717 255 D;
#X text 717 275 D#;
#X text 717 294 E;
#X text 717 313 F;
#X text 717 331 F#;
#X text 717 350 G;
#X text 717 369 G#;
#X obj 524 382 +;
#X msg 685 485 -12;
#X msg 685 529 12;
#X floatatom 554 382 5 0 0 0 - - -;
#X text 833 492 - Octave;
#X text 833 542 + Octave;
#X msg 685 508 0;
#X text 845 519 Center;
#X msg 685 549 24;
#X msg 685 465 -24;
#X text 827 566 +2 Octave;
#X text 827 466 -2 Octave;
#X obj 602 566 sel 0 1 2 3 4;
#X obj 602 544 r octave;
#X obj 795 463 vradio 25 1 0 5 empty empty empty 0 -8 0 10 -262144
-1 -1 0;
#X obj 795 594 s octave;
#X msg 130 285 \; melody 0 60 62 63 65 67 68 70 72;
#X msg 37 660 \; melody ylabel -0.1 30 40 50 60 70 80;
#X obj 61 220 sel 0 1;
#X obj 61 175 vradio 15 1 0 2 empty empty empty 0 -8 0 10 -262144 -1
-1 1;
#X text 77 175 Major;
#X text 77 190 Minor;
#X obj 469 107 inlet;
#X obj 467 516 outlet;
#X obj 61 145 inlet;
#X obj 20 525 loadbang;
#X obj 795 442 inlet;
#X obj 510 107 sel 0 1 2 3 4 5 6 7 8 9 10;
#X obj 510 85 inlet;
#X obj 413 116 loadbang;
#X obj 469 259 t f b;
#X connect 2 0 3 0;
#X connect 3 0 64 0;
#X connect 7 0 2 0;
#X connect 8 0 7 0;
#X connect 9 0 10 0;
#X connect 9 0 57 0;
#X connect 11 0 34 0;
#X connect 12 0 11 0;
#X connect 13 0 11 0;
#X connect 14 0 11 0;
#X connect 15 0 11 0;
#X connect 16 0 11 0;
#X connect 17 0 11 0;
#X connect 18 0 11 0;
#X connect 19 0 11 0;
#X connect 20 0 11 0;
#X connect 21 0 11 0;
#X connect 22 0 11 0;
#X connect 34 0 9 1;
#X connect 35 0 37 0;
#X connect 36 0 37 0;
#X connect 37 0 34 1;
#X connect 40 0 37 0;
#X connect 42 0 37 0;
#X connect 43 0 37 0;
#X connect 46 0 43 0;
#X connect 46 1 35 0;
#X connect 46 2 40 0;
#X connect 46 3 36 0;
#X connect 46 4 42 0;
#X connect 47 0 46 0;
#X connect 48 0 49 0;
#X connect 52 0 5 0;
#X connect 52 1 50 0;
#X connect 53 0 52 0;
#X connect 56 0 7 0;
#X connect 58 0 53 0;
#X connect 59 0 6 0;
#X connect 59 0 51 0;
#X connect 59 0 4 0;
#X connect 59 0 1 0;
#X connect 60 0 48 0;
#X connect 61 0 14 0;
#X connect 61 1 13 0;
#X connect 61 2 12 0;
#X connect 61 3 15 0;
#X connect 61 4 16 0;
#X connect 61 5 17 0;
#X connect 61 6 18 0;
#X connect 61 7 19 0;
#X connect 61 8 20 0;
#X connect 61 9 21 0;
#X connect 61 10 22 0;
#X connect 62 0 61 0;
#X connect 63 0 8 0;
#X connect 64 0 9 0;
#X connect 64 1 11 0;
