#N canvas 0 23 1440 778 10;
#X obj 782 494 int;
#X msg 811 197 60 62 64 65 67 69 71 72;
#X obj 813 226 unpack f f f f f f f f;
#X floatatom 660 347 5 0 0 0 - - -;
#X floatatom 696 347 5 0 0 0 - - -;
#X floatatom 730 347 5 0 0 0 - - -;
#X floatatom 765 347 5 0 0 0 - - -;
#X floatatom 801 347 5 0 0 0 - - -;
#X floatatom 835 347 5 0 0 0 - - -;
#X floatatom 870 347 5 0 0 0 - - -;
#X floatatom 905 347 5 0 0 0 - - -;
#X obj 643 246 sel 0 1 2 3 4 5 6 7;
#X obj 670 219 % 8;
#X obj 700 199 random 8;
#X msg 619 158 seed 4;
#X obj 697 561 outlet;
#X obj 699 86 inlet;
#X obj 619 107 loadbang;
#X connect 0 0 15 0;
#X connect 1 0 2 0;
#X connect 2 0 3 0;
#X connect 2 1 4 0;
#X connect 2 2 5 0;
#X connect 2 3 6 0;
#X connect 2 4 7 0;
#X connect 2 5 8 0;
#X connect 2 6 9 0;
#X connect 2 7 10 0;
#X connect 3 0 0 0;
#X connect 4 0 0 0;
#X connect 5 0 0 0;
#X connect 6 0 0 0;
#X connect 7 0 0 0;
#X connect 8 0 0 0;
#X connect 9 0 0 0;
#X connect 10 0 0 0;
#X connect 11 0 3 0;
#X connect 11 1 4 0;
#X connect 11 2 5 0;
#X connect 11 3 6 0;
#X connect 11 4 7 0;
#X connect 11 5 8 0;
#X connect 11 6 9 0;
#X connect 11 7 10 0;
#X connect 12 0 11 0;
#X connect 13 0 12 0;
#X connect 14 0 13 1;
#X connect 16 0 13 0;
#X connect 17 0 14 0;
#X connect 17 0 1 0;
