#N canvas 0 23 675 501 10;
#X obj 196 268 outlet~;
#X obj 303 48 sel 0 1 2;
#X obj 303 25 inlet;
#X obj 394 165 expr~ $v1 >0.5;
#X obj 103 225 *~;
#X obj 267 205 *~;
#X obj 353 224 *~;
#X msg 398 224 0;
#X msg 284 179 0;
#X msg 272 148 1;
#X msg 388 199 1;
#X msg 100 175 1;
#X msg 114 198 0;
#X text 340 24 Waveform Selector;
#X obj 71 137 osc~;
#X obj 199 137 phasor~;
#X obj 373 137 phasor~;
#X obj 426 62 inlet;
#X text 463 61 Note Selector;
#X obj 425 90 mtof;
#X connect 1 0 11 0;
#X connect 1 0 8 0;
#X connect 1 0 7 0;
#X connect 1 1 9 0;
#X connect 1 1 12 0;
#X connect 1 1 7 0;
#X connect 1 2 10 0;
#X connect 1 2 12 0;
#X connect 1 2 8 0;
#X connect 2 0 1 0;
#X connect 3 0 6 0;
#X connect 4 0 0 0;
#X connect 5 0 0 0;
#X connect 6 0 0 0;
#X connect 7 0 6 1;
#X connect 8 0 5 1;
#X connect 9 0 5 1;
#X connect 10 0 6 1;
#X connect 11 0 4 1;
#X connect 12 0 4 1;
#X connect 14 0 4 0;
#X connect 15 0 5 0;
#X connect 16 0 3 0;
#X connect 17 0 19 0;
#X connect 19 0 16 0;
#X connect 19 0 15 0;
#X connect 19 0 14 0;
