#N canvas 0 23 1440 778 10;
#X obj 19 219 osc_abs;
#X obj 15 100 tabwrite~ waveform;
#N canvas 0 22 450 278 (subpatch) 0;
#X array waveform 100 float 1;
#A 0 0 0 0 0 0 0 0 0 0 0 0 0 0 0 0 0 0 0 0 0 0 0 0 0 0 0 0 0 0 0 0
0 0 0 0 0 0 0 0 0 0 0 0 0 0 0 0 0 0 0 0 0 0 0 0 0 0 0 0 0 0 0 0 0 0
0 0 0 0 0 0 0 0 0 0 0 0 0 0 0 0 0 0 0 0 0 0 0 0 0 0 0 0 0 0 0 0 0 0
0;
#X coords 0 1 99 -1 200 140 1;
#X restore 550 164 graph;
#X obj 15 55 tgl 15 0 empty empty empty 17 7 0 10 -262144 -1 -1 1 1
;
#X obj 76 77 r~ table;
#X obj 756 122 r~ vu;
#X obj 756 141 env~;
#X obj 756 160 - 100;
#X obj 757 182 vu 15 120 empty empty -1 -8 0 10 -66577 -1 1 0;
#N canvas 315 286 757 446 Volume 0;
#X obj 238 145 vsl 15 50 0 0.5 0 0 empty empty empty 0 -9 0 10 -262144
-1 -1 4900 1;
#X obj 238 104 tgl 15 0 empty empty empty 17 7 0 10 -262144 -1 -1 1
1;
#X obj 355 186 tgl 15 0 empty empty empty 17 7 0 10 -262144 -1 -1 0
1;
#X obj 238 207 expr if($f2 \, $f1 \, 0);
#X obj 238 123 metro 10;
#X obj 193 109 inlet;
#X obj 355 90 inlet;
#X floatatom 283 174 5 0 0 0 - - -;
#X floatatom 276 275 5 0 0 0 - - -;
#X obj 207 254 line~;
#X msg 207 230 \$1 50;
#X obj 225 275 outlet~;
#X obj 238 82 inlet;
#X connect 0 0 3 0;
#X connect 0 0 7 0;
#X connect 1 0 4 0;
#X connect 2 0 3 1;
#X connect 3 0 8 0;
#X connect 3 0 10 0;
#X connect 4 0 0 0;
#X connect 5 0 0 0;
#X connect 6 0 2 0;
#X connect 9 0 11 0;
#X connect 10 0 9 0;
#X connect 12 0 1 0;
#X restore 926 82 pd Volume - On/Off;
#X obj 15 77 metro 100;
#X obj 926 22 vsl 15 50 0 0.5 0 0 empty empty empty 0 -9 0 10 -262144
-1 -1 4900 1;
#X obj 1031 56 tgl 15 0 empty empty empty 17 7 0 10 -262144 -1 -1 0
1;
#X obj 132 219 osc_abs;
#X obj 103 264 *~ 0.5;
#X obj 926 106 s~ volume;
#X obj 161 479 r~ volume;
#X text 1021 39 On/Off;
#X obj 814 224 vradio 20 1 1 3 empty empty empty 0 -8 0 10 -262144
-1 -1 2;
#X text 837 225 Sine;
#X text 836 247 Saw;
#X text 835 266 Square;
#X text 813 206 Osc 1;
#X obj 893 223 vradio 20 1 1 3 empty bang empty 0 -8 0 10 -262144 -1
-1 0;
#X text 916 224 Sine;
#X text 915 246 Saw;
#X text 914 265 Square;
#X text 892 205 Osc 2;
#X obj 814 290 s osc1;
#X obj 893 289 s osc2;
#X obj 23 160 r osc1;
#X obj 136 170 r osc2;
#X obj 178 62 r midiNote;
#X obj 1260 694 s midiNote;
#X obj 110 505 *~;
#X obj 74 543 s~ table;
#X obj 130 543 dac~;
#X obj 164 543 s~ vu;
#X obj 110 444 expr~ if($f3 \, $v2 \, $v1);
#X obj 1256 223 knob 32 32 30 5000 0 0 empty empty empty 0 -8 0 8 2.23307e+06
1 2.24155e+06 1000 1;
#X obj 1059 219 tgl 30 0 empty empty empty 17 7 0 10 -262144 -1 -1
0 1;
#X obj 15 33 loadbang;
#X obj 976 56 loadbang;
#X obj 151 415 filter_abs;
#X obj 1256 273 s Cutoff;
#X obj 1039 260 s filterOn/Off;
#X text 1235 200 Filter Cutoff;
#X obj 1141 216 vradio 20 1 1 3 empty empty empty 0 -8 0 10 -262144
-1 -1 1;
#X text 1133 199 Filter Select;
#X text 1165 217 Lo-Pass;
#X text 1164 237 Band-Pass;
#X text 1164 257 Hi-Pass;
#X obj 1339 224 knob 32 32 0 20 0 0 empty empty empty 0 -8 0 8 2.23307e+06
1 2.24155e+06 500 1;
#X text 1349 200 Q;
#X obj 1339 272 s Q;
#X text 1046 199 Filter On/Off;
#X obj 175 395 r Cutoff;
#X obj 245 419 r filterOn/Off;
#X obj 1141 283 s filterSelect;
#X obj 150 376 r filterSelect;
#X obj 242 385 r Q;
#X obj 199 218 osc_abs;
#X obj 199 195 r osc3;
#X obj 967 223 vradio 20 1 1 3 empty bang empty 0 -8 0 10 -262144 -1
-1 0;
#X text 990 224 Sine;
#X text 989 246 Saw;
#X text 988 265 Square;
#X text 965 205 Osc 3;
#X obj 967 288 s osc3;
#X obj 664 513 beatMachineBeta;
#X obj 582 521 env~;
#X obj 582 540 - 100;
#X obj 583 562 vu 15 120 empty empty -1 -8 0 10 -66577 -1 1 0;
#X obj 664 488 r beat;
#X obj 707 463 vsl 15 40 0 1 0 0 empty empty empty 0 -9 0 10 -262144
-1 -1 0 1;
#X obj 751 471 vradio 15 1 0 2 empty empty empty 0 -8 0 10 -262144
-1 -1 0;
#X obj 1195 58 metro;
#X obj 1232 36 ~/Documents/Pd/beats-per-minute;
#X floatatom 1232 15 5 0 0 0 - - -;
#X obj 1195 32 tgl 15 0 empty empty empty 17 7 0 10 -262144 -1 -1 1
1;
#X obj 1149 76 s beat;
#X obj 1191 133 s seqTempo;
#X obj 1178 58 bng 15 250 50 0 empty empty empty 17 7 0 10 -262144
-1 -1;
#X obj 1232 58 / 4;
#X obj 1191 76 counter;
#X obj 1191 95 % 4;
#X obj 1321 630 r seqTempo;
#X obj 1039 644 knob 32 32 30 5000 0 0 empty empty empty 0 -8 0 8 2.23307e+06
1 2.24155e+06 0 1;
#X obj 842 633 tgl 30 0 empty empty empty 17 7 0 10 -262144 -1 -1 0
1;
#X text 1018 614 Filter Cutoff;
#X obj 924 629 vradio 20 1 1 3 empty empty empty 0 -8 0 10 -262144
-1 -1 1;
#X text 916 613 Filter Select;
#X text 948 631 Lo-Pass;
#X text 947 651 Band-Pass;
#X text 947 671 Hi-Pass;
#X obj 1122 638 knob 32 32 0 20 0 0 empty empty empty 0 -8 0 8 2.23307e+06
1 2.24155e+06 0 1;
#X text 1132 614 Q;
#X text 829 613 Filter On/Off;
#X obj 822 674 s DfilterOn/Off;
#X obj 924 697 s DfilterSelect;
#X obj 1039 687 s DCutoff;
#X obj 1122 686 s DQ;
#X obj 664 607 expr~ if($f3 \, $v2 \, $v1);
#X obj 729 570 filter_abs;
#X obj 748 530 r DfilterSelect;
#X obj 773 549 r DCutoff;
#X obj 795 570 r DQ;
#X obj 825 570 r DfilterOn/Off;
#X obj 1329 405 vradio 15 1 0 8 empty empty empty 0 -8 0 10 -262144
-1 -1 0;
#X obj 769 512 s sendBang;
#X obj 1278 630 r bang;
#X obj 1191 114 sel 0 1 2 3 4 5 6 7;
#X obj 1239 76 r seqPattern;
#X obj 1329 529 s seqPattern;
#X text 1147 179 OSCILLATORS FILTER;
#X text 876 177 OSCILLATORS;
#X obj 663 670 dac~;
#X text 683 447 Drum Volume;
#X text 737 426 DRUM MACHINE;
#X text 767 470 Beat1;
#X text 767 487 Beat2;
#X text 720 108 Oscillators Level;
#X text 581 484 Drums Level;
#X text 959 585 DRUMS FILTER;
#X text 1123 386 MELODY SELECTOR;
#X text 1298 389 Melody Pattern;
#X text 1267 15 TEMPO CONTROL;
#X text 966 15 MAIN AMP;
#X obj 695 670 s~ beatLevel;
#X obj 582 502 r~ beatLevel;
#X obj 1260 672 noteSequencer2;
#X obj 1018 405 vradio 15 1 0 2 empty empty empty 0 -8 0 10 -262144
-1 -1 0;
#X text 1034 405 Major;
#X text 1034 420 Minor;
#X obj 1214 635 r maj_min;
#X obj 1018 442 s maj_min;
#X text 1250 436 - Octave;
#X text 1250 486 + Octave;
#X text 1262 463 Center;
#X text 1244 510 +2 Octave;
#X text 1244 410 -2 Octave;
#X obj 1212 407 vradio 25 1 0 5 empty empty empty 0 -8 0 10 -262144
-1 -1 0;
#X obj 1212 538 s octave;
#X obj 1369 654 r octave;
#X obj 1100 405 vradio 15 1 0 11 empty empty empty 0 -8 0 10 -262144
-1 -1 0;
#X text 1119 404 A;
#X text 1119 419 A#;
#X text 1119 435 B;
#X text 1119 450 C;
#X text 1119 465 D;
#X text 1119 480 D#;
#X text 1119 495 E;
#X text 1119 509 F;
#X text 1119 525 F#;
#X text 1119 540 G;
#X text 1119 556 G#;
#X obj 1100 576 s key;
#X obj 1320 651 r key;
#X obj 252 219 fm_craziness;
#X obj 286 169 vsl 20 40 0 1 0 0 empty empty empty 0 -9 0 10 -262144
-1 -1 3800 1;
#X obj 321 176 knob 32 32 0 2000 0 0 empty empty empty 0 -8 0 8 2.23307e+06
1 2.23312e+06 1100 1;
#X obj 365 176 knob 32 32 0 2000 0 0 empty empty empty 0 -8 0 8 2.23307e+06
1 2.23312e+06 300 1;
#X text 1347 464 Quarter Note;
#X text 1347 419 Sixteenth;
#X text 1347 449 Dotted Eighth;
#X text 1347 434 Eighth Note;
#X connect 0 0 14 0;
#X connect 3 0 10 0;
#X connect 4 0 1 0;
#X connect 5 0 6 0;
#X connect 6 0 7 0;
#X connect 7 0 8 0;
#X connect 9 0 15 0;
#X connect 10 0 1 0;
#X connect 11 0 9 0;
#X connect 12 0 9 2;
#X connect 13 0 14 0;
#X connect 14 0 38 0;
#X connect 14 0 43 0;
#X connect 16 0 34 1;
#X connect 18 0 28 0;
#X connect 23 0 29 0;
#X connect 30 0 0 0;
#X connect 31 0 13 0;
#X connect 32 0 61 1;
#X connect 32 0 158 0;
#X connect 32 0 13 1;
#X connect 32 0 0 1;
#X connect 34 0 35 0;
#X connect 34 0 36 0;
#X connect 34 0 36 1;
#X connect 34 0 37 0;
#X connect 38 0 34 0;
#X connect 39 0 44 0;
#X connect 40 0 45 0;
#X connect 41 0 3 0;
#X connect 42 0 9 1;
#X connect 43 0 38 1;
#X connect 47 0 58 0;
#X connect 52 0 54 0;
#X connect 56 0 43 2;
#X connect 57 0 38 2;
#X connect 59 0 43 1;
#X connect 60 0 43 3;
#X connect 61 0 14 0;
#X connect 62 0 61 0;
#X connect 63 0 68 0;
#X connect 69 0 102 0;
#X connect 69 0 103 0;
#X connect 70 0 71 0;
#X connect 71 0 72 0;
#X connect 73 0 69 0;
#X connect 74 0 69 1;
#X connect 75 0 69 2;
#X connect 75 0 109 0;
#X connect 76 0 80 0;
#X connect 76 0 82 0;
#X connect 76 0 84 0;
#X connect 77 0 83 0;
#X connect 78 0 77 0;
#X connect 79 0 76 0;
#X connect 83 0 76 1;
#X connect 84 0 85 0;
#X connect 85 0 111 0;
#X connect 86 0 130 1;
#X connect 87 0 100 0;
#X connect 88 0 98 0;
#X connect 90 0 99 0;
#X connect 95 0 101 0;
#X connect 102 0 116 0;
#X connect 102 0 116 1;
#X connect 102 0 128 0;
#X connect 103 0 102 1;
#X connect 104 0 103 1;
#X connect 105 0 103 2;
#X connect 106 0 103 3;
#X connect 107 0 102 2;
#X connect 108 0 113 0;
#X connect 110 0 130 1;
#X connect 111 0 81 0;
#X connect 112 0 85 1;
#X connect 129 0 70 0;
#X connect 130 0 33 0;
#X connect 131 0 135 0;
#X connect 134 0 130 0;
#X connect 141 0 142 0;
#X connect 143 0 130 3;
#X connect 144 0 156 0;
#X connect 157 0 130 2;
#X connect 158 0 14 0;
#X connect 159 0 158 1;
#X connect 160 0 158 2;
#X connect 161 0 158 3;
