#N canvas 0 23 1440 778 10;
#X obj 14 144 osc_abs;
#X obj 15 100 tabwrite~ waveform;
#N canvas 0 22 450 278 (subpatch) 0;
#X array waveform 100 float 1;
#A 0 0 0 0 0 0 0 0 0 0 0 0 0 0 0 0 0 0 0 0 0 0 0 0 0 0 0 0 0 0 0 0
0 0 0 0 0 0 0 0 0 0 0 0 0 0 0 0 0 0 0 0 0 0 0 0 0 0 0 0 0 0 0 0 0 0
0 0 0 0 0 0 0 0 0 0 0 0 0 0 0 0 0 0 0 0 0 0 0 0 0 0 0 0 0 0 0 0 0 0
0;
#X coords 0 1 99 -1 200 140 1;
#X restore 596 90 graph;
#X obj 15 55 tgl 15 0 empty empty empty 17 7 0 10 -262144 -1 -1 1 1
;
#X obj 76 77 r~ table;
#X obj 596 242 r~ vu;
#X obj 596 261 env~;
#X obj 596 280 - 100;
#X obj 597 302 vu 15 120 empty empty -1 -8 0 10 -66577 -1 1 0;
#N canvas 315 286 757 446 Volume 0;
#X obj 238 145 vsl 15 50 0 0.5 0 0 empty empty empty 0 -9 0 10 -262144
-1 -1 2500 1;
#X obj 238 104 tgl 15 0 empty empty empty 17 7 0 10 -262144 -1 -1 1
1;
#X obj 355 186 tgl 15 0 empty empty empty 17 7 0 10 -262144 -1 -1 0
1;
#X obj 238 207 expr if($f2 \, $f1 \, 0);
#X obj 238 123 metro 10;
#X obj 193 109 inlet;
#X obj 355 90 inlet;
#X floatatom 283 174 5 0 0 0 - - -;
#X floatatom 276 275 5 0 0 0 - - -;
#X obj 207 254 line~;
#X msg 207 230 \$1 50;
#X obj 225 275 outlet~;
#X obj 238 82 inlet;
#X connect 0 0 3 0;
#X connect 0 0 7 0;
#X connect 1 0 4 0;
#X connect 2 0 3 1;
#X connect 3 0 8 0;
#X connect 3 0 10 0;
#X connect 4 0 0 0;
#X connect 5 0 0 0;
#X connect 6 0 2 0;
#X connect 9 0 11 0;
#X connect 10 0 9 0;
#X connect 12 0 1 0;
#X restore 816 152 pd Volume - On/Off;
#X obj 15 77 metro 100;
#X obj 816 93 vsl 15 50 0 0.5 0 0 empty empty empty 0 -9 0 10 -262144
-1 -1 2500 1;
#X obj 921 127 tgl 15 0 empty empty empty 17 7 0 10 -262144 -1 -1 0
1;
#X obj 127 144 osc_abs;
#X obj 104 180 *~ 0.5;
#X obj 816 176 s~ volume;
#X obj 140 289 r~ volume;
#X text 806 75 Main Amp;
#X text 911 109 On/Off;
#X obj 814 224 vradio 20 1 1 3 empty empty empty 0 -8 0 10 -262144
-1 -1 0;
#X text 837 225 Sine;
#X text 836 247 Saw;
#X text 835 266 Square;
#X text 808 206 Osc 1;
#X obj 893 224 vradio 20 1 1 3 empty bang empty 0 -8 0 10 -262144 -1
-1 0;
#X text 916 225 Sine;
#X text 915 247 Saw;
#X text 914 266 Square;
#X text 887 206 Osc 2;
#X obj 814 290 s osc1;
#X obj 893 289 s osc2;
#X obj 14 121 r osc1;
#X obj 127 121 r osc2;
#X obj 181 59 r midiNote;
#X obj 1187 237 s midiNote;
#X obj 1086 91 hsl 50 30 20 100 0 0 empty empty empty -2 -8 0 10 -262144
-1 -1 2450 0;
#N canvas 360 308 450 300 lpf 0;
#X obj 259 123 inlet~;
#X obj 303 123 inlet;
#X obj 282 203 lop~;
#X obj 296 254 outlet~;
#X obj 303 178 line;
#X msg 303 151 \$1 20;
#X connect 0 0 2 0;
#X connect 1 0 5 0;
#X connect 2 0 3 0;
#X connect 4 0 2 1;
#X connect 5 0 4 0;
#X restore 146 212 pd lpf;
#X obj 108 312 *~;
#X obj 72 350 s~ table;
#X obj 128 350 dac~;
#X obj 162 350 s~ vu;
#X obj 179 190 r lpCutoff;
#X obj 106 248 expr~ if($f3 \, $v2 \, $v1);
#X obj 1093 570 knob 32 32 30 5000 0 0 empty empty empty 0 -8 0 8 4.43325e+06
1 4.4333e+06 0 1;
#X obj 1093 620 s lpCutoff;
#X text 1092 547 Low Pass Filter;
#X obj 241 223 r lpOn/Off;
#X obj 1166 652 s lpOn/Off;
#X obj 1166 571 tgl 30 0 empty empty empty 17 7 0 10 -262144 -1 -1
0 1;
#X obj 1083 49 loadbang;
#X msg 1083 70 60;
#X obj 15 33 loadbang;
#X obj 866 126 loadbang;
#X obj 1247 62 knob 32 32 50 1000 0 0 rpR empty empty 0 -8 0 8 4.43325e+06
1 4.4333e+06 600 1;
#X text 1279 55 Rate;
#X obj 1293 92 knob 32 32 10 100 0 0 rpD empty empty 0 -8 0 8 4.43325e+06
1 4.4333e+06 800 1;
#X obj 1338 129 knob 32 32 0 50 0 0 rpRng empty empty 0 -8 0 8 4.43325e+06
1 4.4333e+06 1600 1;
#X obj 1187 216 int;
#X text 1325 84 Depth;
#X text 1367 117 Range;
#N canvas 0 23 933 690 randomPitch 0;
#X obj 276 237 inlet;
#X obj 324 282 inlet;
#X obj 368 327 inlet;
#X obj 219 400 outlet;
#X obj 219 280 metro;
#X obj 219 312 random 50;
#X obj 219 349 +;
#X obj 219 229 inlet;
#X text 314 237 rate;
#X text 363 282 depth;
#X text 408 327 range;
#X text 214 210 On/Off;
#X obj 219 256 tgl 15 0 empty empty empty 17 7 0 10 -262144 -1 -1 0
1;
#X floatatom 282 273 5 0 0 0 - - -;
#X floatatom 330 313 5 0 0 0 - - -;
#X floatatom 380 362 5 0 0 0 - - -;
#X connect 0 0 4 1;
#X connect 0 0 13 0;
#X connect 1 0 5 1;
#X connect 1 0 14 0;
#X connect 2 0 6 1;
#X connect 2 0 15 0;
#X connect 4 0 5 0;
#X connect 5 0 6 0;
#X connect 6 0 3 0;
#X connect 7 0 12 0;
#X connect 12 0 4 0;
#X restore 1210 191 pd randomPitch;
#X obj 1210 129 tgl 15 0 empty empty empty 17 7 0 10 -262144 -1 -1
0 1;
#X floatatom 1246 99 5 50 1000 0 - rpR -;
#X floatatom 1292 127 5 10 100 0 - rpD -;
#X floatatom 1339 164 5 0 50 0 - rpRng -;
#X obj 1232 173 r rpR;
#X obj 1264 155 r rpD;
#X obj 1268 172 r rpRng;
#X text 1170 12 Note Control;
#X text 1278 30 Midi Note Randomizer;
#X text 1082 28 Midi Note Slider;
#X text 1198 114 On/Off;
#X connect 0 0 14 0;
#X connect 3 0 10 0;
#X connect 4 0 1 0;
#X connect 5 0 6 0;
#X connect 6 0 7 0;
#X connect 7 0 8 0;
#X connect 9 0 15 0;
#X connect 10 0 1 0;
#X connect 11 0 9 0;
#X connect 12 0 9 2;
#X connect 13 0 14 0;
#X connect 14 0 36 0;
#X connect 14 0 42 0;
#X connect 16 0 37 1;
#X connect 19 0 29 0;
#X connect 24 0 30 0;
#X connect 31 0 0 0;
#X connect 32 0 13 0;
#X connect 33 0 13 1;
#X connect 33 0 0 1;
#X connect 35 0 57 0;
#X connect 36 0 42 1;
#X connect 37 0 38 0;
#X connect 37 0 39 0;
#X connect 37 0 39 1;
#X connect 37 0 40 0;
#X connect 41 0 36 1;
#X connect 42 0 37 0;
#X connect 43 0 44 0;
#X connect 46 0 42 2;
#X connect 48 0 47 0;
#X connect 49 0 50 0;
#X connect 50 0 35 0;
#X connect 51 0 3 0;
#X connect 52 0 9 1;
#X connect 57 0 34 0;
#X connect 60 0 57 0;
#X connect 61 0 60 0;
#X connect 65 0 60 1;
#X connect 66 0 60 2;
#X connect 67 0 60 3;
