#N canvas 0 23 1440 775 10;
#X obj 14 144 osc_abs;
#X obj 15 100 tabwrite~ waveform;
#N canvas 0 22 450 278 (subpatch) 0;
#X array waveform 100 float 1;
#A 0 0 0 0 0 0 0 0 0 0 0 0 0 0 0 0 0 0 0 0 0 0 0 0 0 0 0 0 0 0 0 0
0 0 0 0 0 0 0 0 0 0 0 0 0 0 0 0 0 0 0 0 0 0 0 0 0 0 0 0 0 0 0 0 0 0
0 0 0 0 0 0 0 0 0 0 0 0 0 0 0 0 0 0 0 0 0 0 0 0 0 0 0 0 0 0 0 0 0 0
0;
#X coords 0 1 99 -1 200 140 1;
#X restore 596 90 graph;
#X obj 15 55 tgl 15 0 empty empty empty 17 7 0 10 -262144 -1 -1 1 1
;
#X obj 76 77 r~ table;
#X obj 596 242 r~ vu;
#X obj 596 261 env~;
#X obj 596 280 - 100;
#X obj 597 302 vu 15 120 empty empty -1 -8 0 10 -66577 -1 1 0;
#N canvas 315 286 757 446 Volume 0;
#X obj 238 145 vsl 15 50 0 0.5 0 0 empty empty empty 0 -9 0 10 -262144
-1 -1 0 1;
#X obj 238 104 tgl 15 0 empty empty empty 17 7 0 10 -262144 -1 -1 1
1;
#X obj 355 186 tgl 15 0 empty empty empty 17 7 0 10 -262144 -1 -1 0
1;
#X obj 238 207 expr if($f2 \, $f1 \, 0);
#X obj 238 123 metro 10;
#X obj 193 109 inlet;
#X obj 355 90 inlet;
#X floatatom 283 174 5 0 0 0 - - -;
#X floatatom 276 275 5 0 0 0 - - -;
#X obj 207 254 line~;
#X msg 207 230 \$1 50;
#X obj 225 275 outlet~;
#X obj 238 82 inlet;
#X connect 0 0 3 0;
#X connect 0 0 7 0;
#X connect 1 0 4 0;
#X connect 2 0 3 1;
#X connect 3 0 8 0;
#X connect 3 0 10 0;
#X connect 4 0 0 0;
#X connect 5 0 0 0;
#X connect 6 0 2 0;
#X connect 9 0 11 0;
#X connect 10 0 9 0;
#X connect 12 0 1 0;
#X restore 816 152 pd Volume - On/Off;
#X obj 15 77 metro 100;
#X obj 816 92 vsl 15 50 0 0.5 0 0 empty empty empty 0 -9 0 10 -262144
-1 -1 0 1;
#X obj 921 126 tgl 15 0 empty empty empty 17 7 0 10 -262144 -1 -1 0
1;
#X obj 127 144 osc_abs;
#X obj 104 180 *~ 0.5;
#X obj 816 176 s~ volume;
#X obj 157 283 r~ volume;
#X text 806 75 Main Amp;
#X text 911 109 On/Off;
#X obj 814 224 vradio 20 1 1 3 empty empty empty 0 -8 0 10 -262144
-1 -1 0;
#X text 837 225 Sine;
#X text 836 247 Saw;
#X text 835 266 Square;
#X text 808 206 Osc 1;
#X obj 893 224 vradio 20 1 1 3 empty bang empty 0 -8 0 10 -262144 -1
-1 1;
#X text 916 225 Sine;
#X text 915 247 Saw;
#X text 914 266 Square;
#X text 887 206 Osc 2;
#X obj 814 290 s osc1;
#X obj 893 289 s osc2;
#X obj 14 121 r osc1;
#X obj 127 121 r osc2;
#X obj 181 59 r midiNote;
#X obj 1207 327 s midiNote;
#X obj 106 309 *~;
#X obj 70 347 s~ table;
#X obj 126 347 dac~;
#X obj 160 347 s~ vu;
#X obj 106 248 expr~ if($f3 \, $v2 \, $v1);
#X obj 1203 106 knob 32 32 30 5000 0 0 empty empty empty 0 -8 0 8 4.50866e+06
1 4.50869e+06 0 1;
#X obj 1006 102 tgl 30 0 empty empty empty 17 7 0 10 -262144 -1 -1
0 1;
#X obj 15 33 loadbang;
#X obj 866 126 loadbang;
#X obj 147 219 filter_abs;
#X obj 1203 156 s Cutoff;
#X obj 986 143 s filterOn/Off;
#X text 1182 83 Filter Cutoff;
#X obj 1088 98 vradio 20 1 1 3 empty empty empty 0 -8 0 10 -262144
-1 -1 1;
#X text 1080 82 Filter Select;
#X text 1112 100 Lo-Pass;
#X text 1111 120 Band-Pass;
#X text 1111 140 Hi-Pass;
#X obj 1286 107 knob 32 32 0 20 0 0 empty empty empty 0 -8 0 8 4.50866e+06
1 4.50869e+06 0 1;
#X text 1296 83 Q;
#X obj 1286 155 s Q;
#X text 993 82 Filter On/Off;
#X obj 171 199 r Cutoff;
#X obj 241 223 r filterOn/Off;
#X obj 1088 166 s filterSelect;
#X obj 146 180 r filterSelect;
#X obj 238 189 r Q;
#X text 1144 42 Filter;
#X obj 194 143 osc_abs;
#X obj 194 120 r osc3;
#X obj 967 223 vradio 20 1 1 3 empty bang empty 0 -8 0 10 -262144 -1
-1 1;
#X text 990 224 Sine;
#X text 989 246 Saw;
#X text 988 265 Square;
#X text 961 205 Osc 3;
#X obj 967 288 s osc3;
#X obj 1207 301 noteSequencer;
#X obj 741 557 beatMachineBeta;
#X obj 741 582 dac~;
#X obj 609 521 env~;
#X obj 609 540 - 100;
#X obj 610 562 vu 15 120 empty empty -1 -8 0 10 -66577 -1 1 0;
#X obj 609 502 r~ beat;
#X obj 773 582 s~ beat;
#X obj 741 532 r beat;
#X obj 784 507 vsl 15 40 0 1 0 0 empty empty empty 0 -9 0 10 -262144
-1 -1 0 1;
#X obj 828 517 vradio 15 1 0 2 empty empty empty 0 -8 0 10 -262144
-1 -1 0;
#X connect 0 0 14 0;
#X connect 3 0 10 0;
#X connect 4 0 1 0;
#X connect 5 0 6 0;
#X connect 6 0 7 0;
#X connect 7 0 8 0;
#X connect 9 0 15 0;
#X connect 10 0 1 0;
#X connect 11 0 9 0;
#X connect 12 0 9 2;
#X connect 13 0 14 0;
#X connect 14 0 39 0;
#X connect 14 0 44 0;
#X connect 16 0 35 1;
#X connect 19 0 29 0;
#X connect 24 0 30 0;
#X connect 31 0 0 0;
#X connect 32 0 13 0;
#X connect 33 0 0 1;
#X connect 33 0 13 1;
#X connect 33 0 63 1;
#X connect 35 0 36 0;
#X connect 35 0 37 0;
#X connect 35 0 37 1;
#X connect 35 0 38 0;
#X connect 39 0 35 0;
#X connect 40 0 45 0;
#X connect 41 0 46 0;
#X connect 42 0 3 0;
#X connect 43 0 9 1;
#X connect 44 0 39 1;
#X connect 48 0 59 0;
#X connect 53 0 55 0;
#X connect 57 0 44 2;
#X connect 58 0 39 2;
#X connect 60 0 44 1;
#X connect 61 0 44 3;
#X connect 63 0 14 0;
#X connect 64 0 63 0;
#X connect 65 0 70 0;
#X connect 71 0 34 0;
#X connect 72 0 73 0;
#X connect 72 0 73 1;
#X connect 72 0 78 0;
#X connect 74 0 75 0;
#X connect 75 0 76 0;
#X connect 77 0 74 0;
#X connect 79 0 72 0;
#X connect 80 0 72 1;
#X connect 81 0 72 2;
