#N canvas 0 23 1440 778 10;
#X obj 139 70 osc_abs;
#X obj 15 70 tabwrite~ waveform;
#N canvas 0 22 450 278 (subpatch) 0;
#X array waveform 200 float 1;
#A 0 0 0 0 0 0 0 0 0 0 0 0 0 0 0 0 0 0 0 0 0 0 0 0 0 0 0 0 0 0 0 0
0 0 0 0 0 0 0 0 0 0 0 0 0 0 0 0 0 0 0 0 0 0 0 0 0 0 0 0 0 0 0 0 0 0
0 0 0 0 0 0 0 0 0 0 0 0 0 0 0 0 0 0 0 0 0 0 0 0 0 0 0 0 0 0 0 0 0 0
0 0 0 0 0 0 0 0 0 0 0 0 0 0 0 0 0 0 0 0 0 0 0 0 0 0 0 0 0 0 0 0 0 0
0 0 0 0 0 0 0 0 0 0 0 0 0 0 0 0 0 0 0 0 0 0 0 0 0 0 0 0 0 0 0 0 0 0
0 0 0 0 0 0 0 0 0 0 0 0 0 0 0 0 0 0 0 0 0 0 0 0 0 0 0 0 0 0 0 0 0;
#X coords 0 1 199 -1 200 140 1 0 0;
#X restore 490 64 graph;
#X obj 15 25 tgl 15 0 empty empty empty 17 7 0 10 -262144 -1 -1 1 1
;
#X obj 76 47 r~ table;
#X obj 696 22 r~ vu;
#X obj 696 41 env~;
#X obj 696 60 - 100;
#X obj 697 82 vu 15 120 empty empty -1 -8 0 10 -66577 -1 1 0;
#N canvas 315 286 757 446 Volume 0;
#X obj 238 145 vsl 15 50 0 0.5 0 0 empty empty empty 0 -9 0 10 -262144
-1 -1 2600 1;
#X obj 238 104 tgl 15 0 empty empty empty 17 7 0 10 -262144 -1 -1 1
1;
#X obj 355 186 tgl 15 0 empty empty empty 17 7 0 10 -262144 -1 -1 0
1;
#X obj 238 207 expr if($f2 \, $f1 \, 0);
#X obj 238 123 metro 10;
#X obj 193 109 inlet;
#X obj 355 90 inlet;
#X floatatom 283 174 5 0 0 0 - - -;
#X floatatom 276 275 5 0 0 0 - - -;
#X obj 207 254 line~;
#X msg 207 230 \$1 50;
#X obj 225 275 outlet~;
#X obj 238 82 inlet;
#X connect 0 0 3 0;
#X connect 0 0 7 0;
#X connect 1 0 4 0;
#X connect 2 0 3 1;
#X connect 3 0 8 0;
#X connect 3 0 10 0;
#X connect 4 0 0 0;
#X connect 5 0 0 0;
#X connect 6 0 2 0;
#X connect 9 0 11 0;
#X connect 10 0 9 0;
#X connect 12 0 1 0;
#X restore 926 82 pd Volume - On/Off;
#X obj 15 47 metro 100;
#X obj 926 23 vsl 15 50 0 0.5 0 0 empty empty empty 0 -9 0 10 -262144
-1 -1 2600 1;
#X obj 1031 56 tgl 15 0 empty empty empty 17 7 0 10 -262144 -1 -1 0
1;
#X obj 192 70 osc_abs;
#X obj 25 101 *~ 0.5;
#X obj 926 106 s~ volume;
#X obj 95 254 r~ volume;
#X text 1021 39 On/Off;
#X obj 814 224 vradio 20 1 1 3 empty empty empty 0 -8 0 10 -262144
-1 -1 0;
#X text 837 225 Sine;
#X text 836 247 Saw;
#X text 835 266 Square;
#X text 813 206 Osc 1;
#X obj 893 223 vradio 20 1 1 3 empty bang empty 0 -8 0 10 -262144 -1
-1 0;
#X text 916 224 Sine;
#X text 915 246 Saw;
#X text 914 265 Square;
#X text 892 205 Osc 2;
#X obj 814 290 s osc1;
#X obj 893 289 s osc2;
#X obj 139 46 r osc1;
#X obj 192 46 r osc2;
#X obj 231 23 r midiNote;
#X obj 1280 634 s midiNote;
#X obj 69 254 *~;
#X obj 9 216 s~ table;
#X obj 69 274 dac~;
#X obj 103 274 s~ vu;
#X obj 24 158 expr~ if($f3 \, $v2 \, $v1);
#X obj 1256 223 knob 32 32 30 5000 0 0 empty empty empty 0 -8 0 8 2.49778e+06
1 2.49792e+06 0 1;
#X obj 1059 219 tgl 30 0 empty empty empty 17 7 0 10 -262144 -1 -1
0 1;
#X obj 15 3 loadbang;
#X obj 976 56 loadbang;
#X obj 69 140 filter_abs;
#X obj 1256 273 s Cutoff;
#X obj 1039 260 s filterOn/Off;
#X text 1235 200 Filter Cutoff;
#X obj 1141 216 vradio 20 1 1 3 empty empty empty 0 -8 0 10 -262144
-1 -1 1;
#X text 1133 199 Filter Select;
#X text 1165 217 Lo-Pass;
#X text 1164 237 Band-Pass;
#X text 1164 257 Hi-Pass;
#X obj 1339 224 knob 32 32 0 20 0 0 empty empty empty 0 -8 0 8 2.49778e+06
1 2.49792e+06 0 1;
#X text 1349 200 Q;
#X obj 1339 272 s Q;
#X text 1046 199 Filter On/Off;
#X obj 93 120 r Cutoff;
#X obj 160 132 r filterOn/Off;
#X obj 1141 283 s filterSelect;
#X obj 68 101 r filterSelect;
#X obj 160 110 r Q;
#X obj 242 70 osc_abs;
#X obj 242 47 r osc3;
#X obj 967 223 vradio 20 1 1 3 empty bang empty 0 -8 0 10 -262144 -1
-1 0;
#X text 990 224 Sine;
#X text 989 246 Saw;
#X text 988 265 Square;
#X text 965 205 Osc 3;
#X obj 967 288 s osc3;
#X obj 690 526 beatMachineBeta;
#X obj 612 520 env~;
#X obj 612 539 - 100;
#X obj 613 561 vu 15 120 empty empty -1 -8 0 10 -66577 -1 1 0;
#X obj 690 501 r beat;
#X obj 733 476 vsl 15 40 0 1 0 0 empty empty empty 0 -9 0 10 -262144
-1 -1 0 1;
#X obj 777 484 vradio 15 1 0 2 empty empty empty 0 -8 0 10 -262144
-1 -1 0;
#X obj 1195 58 metro;
#X obj 1232 36 ~/Documents/Pd/beats-per-minute;
#X floatatom 1232 15 5 60 300 0 - - -;
#X obj 1145 30 tgl 15 0 empty empty empty 17 7 0 10 -262144 -1 -1 0
1;
#X obj 1149 76 s beat;
#X obj 1191 133 s seqTempo;
#X obj 1232 58 / 4;
#X obj 1191 76 counter;
#X obj 1191 95 % 4;
#X obj 1341 570 r seqTempo;
#X obj 1059 614 knob 32 32 30 5000 0 0 empty empty empty 0 -8 0 8 2.49778e+06
1 2.49792e+06 0 1;
#X obj 892 503 tgl 30 0 empty empty empty 17 7 0 10 -262144 -1 -1 0
1;
#X text 1038 584 Filter Cutoff;
#X obj 984 499 vradio 20 1 1 3 empty empty empty 0 -8 0 10 -262144
-1 -1 1;
#X text 976 483 Filter Select;
#X text 1008 501 Lo-Pass;
#X text 1007 521 Band-Pass;
#X text 1007 541 Hi-Pass;
#X obj 1132 648 knob 32 32 0 20 0 0 empty empty empty 0 -8 0 8 2.49778e+06
1 2.49792e+06 0 1;
#X text 1142 624 Q;
#X text 879 483 Filter On/Off;
#X obj 872 544 s DfilterOn/Off;
#X obj 984 567 s DfilterSelect;
#X obj 1059 657 s DCutoff;
#X obj 1132 696 s DQ;
#X obj 690 602 expr~ if($f3 \, $v2 \, $v1);
#X obj 757 582 filter_abs;
#X obj 776 544 r DfilterSelect;
#X obj 795 562 r DCutoff;
#X obj 823 582 r DQ;
#X obj 853 582 r DfilterOn/Off;
#X obj 1329 405 vradio 15 1 0 8 empty empty empty 0 -8 0 10 -262144
-1 -1 4;
#X obj 795 525 s sendBang;
#X obj 1298 570 r bang;
#X obj 1191 114 sel 0 1 2 3 4 5 6 7;
#X obj 1239 76 r seqPattern;
#X obj 1329 529 s seqPattern;
#X text 1147 179 OSCILLATORS FILTER;
#X text 876 177 OSCILLATORS;
#X obj 719 625 dac~;
#X text 709 460 Drum Volume;
#X text 870 435 DRUM MACHINE;
#X text 793 483 Beat1;
#X text 793 500 Beat2;
#X text 660 8 Oscillators Level;
#X text 611 483 Drums Level;
#X text 979 465 DRUMS FILTER;
#X text 1183 366 MELODY SELECTOR;
#X text 1298 389 Melody Pattern;
#X text 1267 15 TEMPO CONTROL;
#X text 966 15 MAIN AMP;
#X obj 751 625 s~ beatLevel;
#X obj 612 501 r~ beatLevel;
#X obj 1280 612 noteSequencer2;
#X obj 1078 405 vradio 15 1 0 2 empty empty empty 0 -8 0 10 -262144
-1 -1 1;
#X text 1094 405 Major;
#X text 1094 420 Minor;
#X obj 1276 594 r maj_min;
#X obj 1078 442 s maj_min;
#X text 1250 436 - Octave;
#X text 1250 486 + Octave;
#X text 1262 463 Center;
#X text 1244 510 +2 Octave;
#X text 1244 410 -2 Octave;
#X obj 1212 407 vradio 25 1 0 5 empty empty empty 0 -8 0 10 -262144
-1 -1 2;
#X obj 1212 538 s octave;
#X obj 1372 594 r octave;
#X obj 1150 405 vradio 15 1 0 11 empty empty empty 0 -8 0 10 -262144
-1 -1 3;
#X text 1169 404 A;
#X text 1169 419 A#;
#X text 1169 435 B;
#X text 1169 450 C;
#X text 1169 465 D;
#X text 1169 480 D#;
#X text 1169 495 E;
#X text 1169 509 F;
#X text 1169 525 F#;
#X text 1169 540 G;
#X text 1169 556 G#;
#X obj 1150 576 s key;
#X obj 1336 594 r key;
#X obj 322 70 fm_craziness;
#X text 1347 464 Quarter Note;
#X text 1347 419 Sixteenth;
#X text 1347 449 Dotted Eighth;
#X text 1347 434 Eighth Note;
#X obj 860 348 vsl 20 30 0 1 0 0 empty empty empty 0 -9 0 10 -262144
-1 -1 0 1;
#X obj 893 347 knob 32 32 0 2000 0 0 empty empty empty 0 -8 0 8 2.49778e+06
1 2.49792e+06 0 1;
#X obj 936 348 knob 32 32 0 2000 0 0 empty empty empty 0 -8 0 8 2.49778e+06
1 2.49792e+06 0 1;
#X text 894 328 Mod1;
#X text 938 328 Mod2;
#X text 852 328 Level;
#X text 850 309 FREQUENCY MODULATION;
#X obj 827 391 s fm_lvl;
#X obj 883 391 s mod1;
#X obj 929 391 s mod2;
#X obj 294 47 r fm_lvl;
#X obj 349 47 r mod1;
#X obj 391 47 r mod2;
#X obj 352 406 bng 15 250 50 0 empty empty empty 17 7 0 10 -262144
-1 -1;
#X obj 352 422 bng 15 250 50 0 empty empty empty 17 7 0 10 -262144
-1 -1;
#X obj 352 438 bng 15 250 50 0 empty empty empty 17 7 0 10 -262144
-1 -1;
#X text 369 406 start recording;
#X text 370 421 stop recording;
#X obj 10 468 adc~ 1;
#X text 244 540 Audio Out;
#X obj 352 390 tgl 15 0 empty empty empty 17 7 0 10 -262144 -1 -1 0
1;
#X obj 352 454 bng 15 250 50 0 empty empty empty 17 7 0 10 -262144
-1 -1;
#X text 369 388 start when recording is finished;
#X text 371 438 play;
#X text 370 454 stop playback;
#X text 212 349 LOOPING;
#X obj 9 235 s~ record;
#X obj 233 438 r~ record;
#X obj 690 643 s~ record2;
#X obj 253 456 r~ record2;
#X obj 70 409 bng 15 250 50 0 empty empty empty 17 7 0 10 -262144 -1
-1;
#X obj 90 425 bng 15 250 50 0 empty empty empty 17 7 0 10 -262144 -1
-1;
#X obj 109 441 bng 15 250 50 0 empty empty empty 17 7 0 10 -262144
-1 -1;
#X text 87 409 start recording;
#X text 108 424 stop recording;
#X text 27 545 Audio Out;
#X obj 50 393 tgl 15 0 empty empty empty 17 7 0 10 -262144 -1 -1 0
1;
#X obj 129 457 bng 15 250 50 0 empty empty empty 17 7 0 10 -262144
-1 -1;
#X text 67 391 start when recording is finished;
#X text 128 441 play;
#X text 147 457 stop playback;
#X obj 30 488 recorder_looper 1;
#X text 313 368 Synth In;
#X text 36 373 External Audio In;
#X obj 131 531 s~ looper_level;
#X obj 410 564 vu 15 120 empty empty -1 -8 0 10 -66577 -1 1 0;
#X obj 409 501 r~ looper_level;
#X obj 409 522 env~;
#X obj 409 542 - 100;
#X obj 253 485 recorder_looper 2;
#X text 408 481 Looper Level;
#X obj 81 236 expr~ if($f3 \, $v2 \, $v1);
#X obj 288 141 tgl 50 0 empty empty empty 17 7 0 10 -262144 -1 -1 0
1;
#X obj 82 179 phaser~;
#X obj 82 199 phaser~;
#X obj 82 218 *~ 0.25;
#X text 341 158 PHASER ON/OFF;
#X text 1089 15 Drums & Melody ON/OFF;
#X obj 1241 614 bng 30 250 50 0 empty empty empty 17 7 0 10 -159808
-4032 -1;
#X obj 423 212 bng 30 250 50 0 empty empty empty 17 7 0 10 -4160 -4034
-1;
#X obj 423 194 r seqTempo;
#X obj 457 212 bng 30 250 50 0 empty empty empty 17 7 0 10 -258113
-4160 -1;
#X obj 492 212 bng 30 250 50 0 empty empty empty 17 7 0 10 -4034 -258113
-1;
#X obj 526 212 bng 30 250 50 0 empty empty empty 17 7 0 10 -159808
-4032 -1;
#X obj 560 212 bng 30 250 50 0 empty empty empty 17 7 0 10 -4160 -4034
-1;
#X obj 594 212 bng 30 250 50 0 empty empty empty 17 7 0 10 -258113
-4160 -1;
#X obj 628 212 bng 30 250 50 0 empty empty empty 17 7 0 10 -4034 -258113
-1;
#X obj 662 212 bng 30 250 50 0 empty empty empty 17 7 0 10 -159808
-4032 -1;
#X obj 36 303 bng 30 250 50 0 empty empty empty 17 7 0 10 -4160 -4034
-1;
#X obj 71 303 bng 30 250 50 0 empty empty empty 17 7 0 10 -258113 -4160
-1;
#X obj 106 303 bng 30 250 50 0 empty empty empty 17 7 0 10 -4034 -258113
-1;
#X obj 140 303 bng 30 250 50 0 empty empty empty 17 7 0 10 -159808
-4032 -1;
#X obj 174 303 bng 30 250 50 0 empty empty empty 17 7 0 10 -4160 -4034
-1;
#X obj 209 303 bng 30 250 50 0 empty empty empty 17 7 0 10 -258113
-4160 -1;
#X obj 244 303 bng 30 250 50 0 empty empty empty 17 7 0 10 -4034 -258113
-1;
#X obj 278 303 bng 30 250 50 0 empty empty empty 17 7 0 10 -159808
-4032 -1;
#X obj 169 277 r seqTempo;
#X obj 34 607 bng 30 250 50 0 empty empty empty 17 7 0 10 -4160 -4034
-1;
#X obj 34 585 r seqTempo;
#X obj 69 607 bng 30 250 50 0 empty empty empty 17 7 0 10 -258113 -4160
-1;
#X obj 104 607 bng 30 250 50 0 empty empty empty 17 7 0 10 -4034 -258113
-1;
#X obj 138 607 bng 30 250 50 0 empty empty empty 17 7 0 10 -159808
-4032 -1;
#X obj 172 607 bng 30 250 50 0 empty empty empty 17 7 0 10 -4160 -4034
-1;
#X obj 207 607 bng 30 250 50 0 empty empty empty 17 7 0 10 -258113
-4160 -1;
#X obj 242 607 bng 30 250 50 0 empty empty empty 17 7 0 10 -4034 -258113
-1;
#X obj 276 607 bng 30 250 50 0 empty empty empty 17 7 0 10 -159808
-4032 -1;
#X obj 1241 647 bng 30 250 50 0 empty empty empty 17 7 0 10 -4160 -4034
-1;
#X obj 1241 681 bng 30 250 50 0 empty empty empty 17 7 0 10 -258113
-4160 -1;
#X obj 1241 715 bng 30 250 50 0 empty empty empty 17 7 0 10 -4034 -258113
-1;
#X obj 1209 595 r seqTempo;
#X obj 1112 65 bng 30 250 50 0 empty empty empty 17 7 0 10 -159808
-4032 -1;
#X obj 1112 98 bng 30 250 50 0 empty empty empty 17 7 0 10 -4160 -4034
-1;
#X obj 1112 132 bng 30 250 50 0 empty empty empty 17 7 0 10 -258113
-4160 -1;
#X obj 1112 166 bng 30 250 50 0 empty empty empty 17 7 0 10 -4034 -258113
-1;
#X obj 1080 46 r seqTempo;
#X obj 423 259 bng 30 250 50 0 empty empty empty 17 7 0 10 -262144
-1 -1;
#X obj 423 243 r seqTempo;
#X obj 458 259 bng 30 250 50 0 empty empty empty 17 7 0 10 -1 -262144
-1;
#X obj 493 259 bng 30 250 50 0 empty empty empty 17 7 0 10 -262144
-1 -1;
#X obj 527 259 bng 30 250 50 0 empty empty empty 17 7 0 10 -1 -262144
-1;
#X obj 561 259 bng 30 250 50 0 empty empty empty 17 7 0 10 -262144
-1 -1;
#X obj 595 259 bng 30 250 50 0 empty empty empty 17 7 0 10 -1 -262144
-1;
#X obj 629 259 bng 30 250 50 0 empty empty empty 17 7 0 10 -262144
-1 -1;
#X obj 663 259 bng 30 250 50 0 empty empty empty 17 7 0 10 -1 -262144
-1;
#X obj 423 306 bng 30 250 50 0 empty empty empty 17 7 0 10 -4160 -4034
-1;
#X obj 423 290 r seqTempo;
#X obj 457 306 bng 30 250 50 0 empty empty empty 17 7 0 10 -258113
-4160 -1;
#X obj 492 306 bng 30 250 50 0 empty empty empty 17 7 0 10 -4034 -258113
-1;
#X obj 526 306 bng 30 250 50 0 empty empty empty 17 7 0 10 -159808
-4032 -1;
#X obj 560 306 bng 30 250 50 0 empty empty empty 17 7 0 10 -4160 -4034
-1;
#X obj 595 306 bng 30 250 50 0 empty empty empty 17 7 0 10 -258113
-4160 -1;
#X obj 629 306 bng 30 250 50 0 empty empty empty 17 7 0 10 -4034 -258113
-1;
#X obj 663 306 bng 30 250 50 0 empty empty empty 17 7 0 10 -159808
-4032 -1;
#X obj 423 352 bng 30 250 50 0 empty empty empty 17 7 0 10 -262144
-1 -1;
#X obj 423 336 r seqTempo;
#X obj 458 352 bng 30 250 50 0 empty empty empty 17 7 0 10 -1 -262144
-1;
#X obj 493 352 bng 30 250 50 0 empty empty empty 17 7 0 10 -262144
-1 -1;
#X obj 527 352 bng 30 250 50 0 empty empty empty 17 7 0 10 -1 -262144
-1;
#X obj 561 352 bng 30 250 50 0 empty empty empty 17 7 0 10 -262144
-1 -1;
#X obj 595 352 bng 30 250 50 0 empty empty empty 17 7 0 10 -1 -262144
-1;
#X obj 629 352 bng 30 250 50 0 empty empty empty 17 7 0 10 -262144
-1 -1;
#X obj 663 352 bng 30 250 50 0 empty empty empty 17 7 0 10 -1 -262144
-1;
#X obj 253 523 dac~ 1 2;
#X obj 30 526 dac~ 1 2;
#X connect 0 0 14 0;
#X connect 3 0 10 0;
#X connect 4 0 1 0;
#X connect 5 0 6 0;
#X connect 6 0 7 0;
#X connect 7 0 8 0;
#X connect 9 0 15 0;
#X connect 10 0 1 0;
#X connect 11 0 9 0;
#X connect 12 0 9 2;
#X connect 13 0 14 0;
#X connect 14 0 38 0;
#X connect 14 0 43 0;
#X connect 16 0 34 1;
#X connect 18 0 28 0;
#X connect 23 0 29 0;
#X connect 30 0 0 0;
#X connect 31 0 13 0;
#X connect 32 0 61 1;
#X connect 32 0 157 0;
#X connect 32 0 13 1;
#X connect 32 0 0 1;
#X connect 34 0 35 0;
#X connect 34 0 36 0;
#X connect 34 0 36 1;
#X connect 34 0 37 0;
#X connect 34 0 188 0;
#X connect 38 0 213 0;
#X connect 38 0 215 0;
#X connect 39 0 44 0;
#X connect 40 0 45 0;
#X connect 41 0 3 0;
#X connect 42 0 9 1;
#X connect 43 0 38 1;
#X connect 47 0 58 0;
#X connect 52 0 54 0;
#X connect 56 0 43 2;
#X connect 57 0 38 2;
#X connect 59 0 43 1;
#X connect 60 0 43 3;
#X connect 61 0 14 0;
#X connect 62 0 61 0;
#X connect 63 0 68 0;
#X connect 69 0 101 0;
#X connect 69 0 102 0;
#X connect 70 0 71 0;
#X connect 71 0 72 0;
#X connect 73 0 69 0;
#X connect 74 0 69 1;
#X connect 75 0 69 2;
#X connect 75 0 108 0;
#X connect 76 0 80 0;
#X connect 76 0 83 0;
#X connect 77 0 82 0;
#X connect 78 0 77 0;
#X connect 79 0 76 0;
#X connect 82 0 76 1;
#X connect 83 0 84 0;
#X connect 84 0 110 0;
#X connect 85 0 129 1;
#X connect 86 0 99 0;
#X connect 87 0 97 0;
#X connect 89 0 98 0;
#X connect 94 0 100 0;
#X connect 101 0 115 0;
#X connect 101 0 115 1;
#X connect 101 0 127 0;
#X connect 101 0 190 0;
#X connect 102 0 101 1;
#X connect 103 0 102 1;
#X connect 104 0 102 2;
#X connect 105 0 102 3;
#X connect 106 0 101 2;
#X connect 107 0 112 0;
#X connect 109 0 129 1;
#X connect 110 0 81 0;
#X connect 111 0 84 1;
#X connect 128 0 70 0;
#X connect 129 0 33 0;
#X connect 130 0 134 0;
#X connect 133 0 129 0;
#X connect 140 0 141 0;
#X connect 142 0 129 3;
#X connect 143 0 155 0;
#X connect 156 0 129 2;
#X connect 157 0 14 0;
#X connect 162 0 169 0;
#X connect 163 0 170 0;
#X connect 164 0 171 0;
#X connect 172 0 157 1;
#X connect 173 0 157 2;
#X connect 174 0 157 3;
#X connect 175 0 211 2;
#X connect 176 0 211 3;
#X connect 177 0 211 4;
#X connect 180 0 203 0;
#X connect 182 0 211 1;
#X connect 183 0 211 5;
#X connect 189 0 211 0;
#X connect 191 0 211 0;
#X connect 192 0 203 2;
#X connect 193 0 203 3;
#X connect 194 0 203 4;
#X connect 198 0 203 1;
#X connect 199 0 203 5;
#X connect 203 0 206 0;
#X connect 203 0 285 0;
#X connect 203 0 285 1;
#X connect 208 0 209 0;
#X connect 209 0 210 0;
#X connect 210 0 207 0;
#X connect 211 0 206 0;
#X connect 211 0 284 0;
#X connect 211 0 284 1;
#X connect 213 0 34 0;
#X connect 214 0 213 2;
#X connect 215 0 216 0;
#X connect 216 0 217 0;
#X connect 217 0 213 1;
#X connect 222 0 221 0;
#X connect 222 0 223 0;
#X connect 222 0 224 0;
#X connect 222 0 225 0;
#X connect 222 0 226 0;
#X connect 222 0 229 0;
#X connect 222 0 228 0;
#X connect 222 0 227 0;
#X connect 238 0 230 0;
#X connect 238 0 237 0;
#X connect 238 0 236 0;
#X connect 238 0 235 0;
#X connect 238 0 234 0;
#X connect 238 0 233 0;
#X connect 238 0 232 0;
#X connect 238 0 231 0;
#X connect 240 0 239 0;
#X connect 240 0 241 0;
#X connect 240 0 242 0;
#X connect 240 0 243 0;
#X connect 240 0 244 0;
#X connect 240 0 247 0;
#X connect 240 0 246 0;
#X connect 240 0 245 0;
#X connect 251 0 248 0;
#X connect 251 0 250 0;
#X connect 251 0 249 0;
#X connect 251 0 220 0;
#X connect 256 0 253 0;
#X connect 256 0 255 0;
#X connect 256 0 254 0;
#X connect 256 0 252 0;
#X connect 258 0 257 0;
#X connect 258 0 259 0;
#X connect 258 0 260 0;
#X connect 258 0 265 0;
#X connect 258 0 264 0;
#X connect 258 0 263 0;
#X connect 258 0 262 0;
#X connect 258 0 261 0;
#X connect 267 0 266 0;
#X connect 267 0 268 0;
#X connect 267 0 269 0;
#X connect 267 0 270 0;
#X connect 267 0 271 0;
#X connect 267 0 274 0;
#X connect 267 0 273 0;
#X connect 267 0 272 0;
#X connect 276 0 275 0;
#X connect 276 0 277 0;
#X connect 276 0 278 0;
#X connect 276 0 283 0;
#X connect 276 0 282 0;
#X connect 276 0 281 0;
#X connect 276 0 280 0;
#X connect 276 0 279 0;
