#N canvas 53 23 927 775 10;
#X obj 14 144 osc_abs;
#X obj 15 100 tabwrite~ waveform;
#N canvas 0 22 450 278 (subpatch) 0;
#X array waveform 100 float 1;
#A 0 0 0 0 0 0 0 0 0 0 0 0 0 0 0 0 0 0 0 0 0 0 0 0 0 0 0 0 0 0 0 0
0 0 0 0 0 0 0 0 0 0 0 0 0 0 0 0 0 0 0 0 0 0 0 0 0 0 0 0 0 0 0 0 0 0
0 0 0 0 0 0 0 0 0 0 0 0 0 0 0 0 0 0 0 0 0 0 0 0 0 0 0 0 0 0 0 0 0 0
0;
#X coords 0 1 99 -1 200 140 1;
#X restore 596 90 graph;
#X obj 15 55 tgl 15 0 empty empty empty 17 7 0 10 -262144 -1 -1 1 1
;
#X obj 76 77 r~ table;
#X obj 596 242 r~ vu;
#X obj 596 261 env~;
#X obj 596 280 - 100;
#X obj 597 302 vu 15 120 empty empty -1 -8 0 10 -66577 -1 1 0;
#N canvas 315 286 757 446 Volume 0;
#X obj 238 145 vsl 15 50 0 0.5 0 0 empty empty empty 0 -9 0 10 -262144
-1 -1 0 1;
#X obj 238 104 tgl 15 0 empty empty empty 17 7 0 10 -262144 -1 -1 1
1;
#X obj 355 186 tgl 15 0 empty empty empty 17 7 0 10 -262144 -1 -1 0
1;
#X obj 238 207 expr if($f2 \, $f1 \, 0);
#X obj 238 123 metro 10;
#X obj 193 109 inlet;
#X obj 355 90 inlet;
#X floatatom 283 174 5 0 0 0 - - -;
#X floatatom 276 275 5 0 0 0 - - -;
#X obj 207 254 line~;
#X msg 207 230 \$1 50;
#X obj 225 275 outlet~;
#X obj 238 82 inlet;
#X connect 0 0 3 0;
#X connect 0 0 7 0;
#X connect 1 0 4 0;
#X connect 2 0 3 1;
#X connect 3 0 8 0;
#X connect 3 0 10 0;
#X connect 4 0 0 0;
#X connect 5 0 0 0;
#X connect 6 0 2 0;
#X connect 9 0 11 0;
#X connect 10 0 9 0;
#X connect 12 0 1 0;
#X restore 816 152 pd Volume - On/Off;
#X obj 15 77 metro 100;
#X obj 816 92 vsl 15 50 0 0.5 0 0 empty empty empty 0 -9 0 10 -262144
-1 -1 0 1;
#X obj 921 126 tgl 15 0 empty empty empty 17 7 0 10 -262144 -1 -1 0
1;
#X obj 127 144 osc_abs;
#X obj 104 180 *~ 0.5;
#X obj 816 176 s~ volume;
#X obj 157 283 r~ volume;
#X text 806 75 Main Amp;
#X text 911 109 On/Off;
#X obj 814 224 vradio 20 1 1 3 empty empty empty 0 -8 0 10 -262144
-1 -1 0;
#X text 837 225 Sine;
#X text 836 247 Saw;
#X text 835 266 Square;
#X text 808 206 Osc 1;
#X obj 893 224 vradio 20 1 1 3 empty bang empty 0 -8 0 10 -262144 -1
-1 1;
#X text 916 225 Sine;
#X text 915 247 Saw;
#X text 914 266 Square;
#X text 887 206 Osc 2;
#X obj 814 290 s osc1;
#X obj 893 289 s osc2;
#X obj 14 121 r osc1;
#X obj 127 121 r osc2;
#X obj 181 59 r midiNote;
#X obj 1187 246 s midiNote;
#X obj 1094 91 hsl 50 30 20 100 0 0 empty empty empty -2 -8 0 10 -262144
-1 -1 2450 0;
#X obj 106 309 *~;
#X obj 70 347 s~ table;
#X obj 126 347 dac~;
#X obj 160 347 s~ vu;
#X obj 106 248 expr~ if($f3 \, $v2 \, $v1);
#X obj 1093 570 knob 32 32 30 5000 0 0 empty empty empty 0 -8 0 8 5.42584e+06
1 2.33906e+06 600 1;
#X obj 896 566 tgl 30 0 empty empty empty 17 7 0 10 -262144 -1 -1 0
1;
#X obj 1083 49 loadbang;
#X msg 1083 70 60;
#X obj 15 33 loadbang;
#X obj 866 126 loadbang;
#X obj 1247 62 knob 32 32 50 1000 0 0 rpR empty empty 0 -8 0 8 5.42584e+06
1 2.33906e+06 600 1;
#X text 1279 55 Rate;
#X obj 1293 92 knob 32 32 10 100 0 0 rpD empty empty 0 -8 0 8 5.42584e+06
1 2.33906e+06 500 1;
#X obj 1338 129 knob 32 32 0 50 0 0 rpRng empty empty 0 -8 0 8 5.42584e+06
1 2.33906e+06 1500 1;
#X obj 1187 216 int;
#X text 1325 84 Depth;
#X text 1367 117 Range;
#N canvas 0 23 933 690 randomPitch 0;
#X obj 276 237 inlet;
#X obj 324 282 inlet;
#X obj 368 327 inlet;
#X obj 219 400 outlet;
#X obj 219 280 metro;
#X obj 219 312 random 50;
#X obj 219 349 +;
#X obj 219 229 inlet;
#X text 314 237 rate;
#X text 363 282 depth;
#X text 408 327 range;
#X text 214 210 On/Off;
#X obj 219 256 tgl 15 0 empty empty empty 17 7 0 10 -262144 -1 -1 0
1;
#X floatatom 282 273 5 0 0 0 - - -;
#X floatatom 330 313 5 0 0 0 - - -;
#X floatatom 380 362 5 0 0 0 - - -;
#X connect 0 0 4 1;
#X connect 0 0 13 0;
#X connect 1 0 5 1;
#X connect 1 0 14 0;
#X connect 2 0 6 1;
#X connect 2 0 15 0;
#X connect 4 0 5 0;
#X connect 5 0 6 0;
#X connect 6 0 3 0;
#X connect 7 0 12 0;
#X connect 12 0 4 0;
#X restore 1210 191 pd randomPitch;
#X obj 1210 129 tgl 15 0 empty empty empty 17 7 0 10 -262144 -1 -1
0 1;
#X floatatom 1246 99 5 50 1000 0 - rpR -;
#X floatatom 1292 127 5 10 100 0 - rpD -;
#X floatatom 1339 164 5 0 50 0 - rpRng -;
#X obj 1232 173 r rpR;
#X obj 1264 155 r rpD;
#X obj 1268 172 r rpRng;
#X text 1170 12 Note Control;
#X text 1278 30 Midi Note Randomizer;
#X text 1082 28 Midi Note Slider;
#X text 1198 114 On/Off;
#X obj 147 219 filter_abs;
#X obj 1093 620 s Cutoff;
#X obj 876 607 s filterOn/Off;
#X text 1072 547 Filter Cutoff;
#X obj 978 562 vradio 20 1 1 3 empty empty empty 0 -8 0 10 -262144
-1 -1 1;
#X text 970 546 Filter Select;
#X text 1002 564 Lo-Pass;
#X text 1001 584 Band-Pass;
#X text 1001 604 Hi-Pass;
#X obj 1176 571 knob 32 32 0 20 0 0 empty empty empty 0 -8 0 8 5.42584e+06
1 2.33906e+06 900 1;
#X text 1186 547 Q;
#X obj 1176 619 s Q;
#X text 883 546 Filter On/Off;
#X obj 171 199 r Cutoff;
#X obj 241 223 r filterOn/Off;
#X obj 978 630 s filterSelect;
#X obj 146 180 r filterSelect;
#X obj 238 189 r Q;
#X text 1034 506 Filter;
#X obj 322 70 r velocity;
#X obj 322 90 sig~;
#X obj 402 138 *~;
#X obj 429 138 *~;
#X obj 393 109 line~;
#X obj 407 36 bng 15 250 50 0 empty empty empty 17 7 0 10 -262144 -1
-1;
#X obj 439 56 del 100;
#X obj 193 86 t f b;
#X obj 1001 147 notein 1;
#X obj 1046 208 s velocity;
#X obj 322 112 /~ 90;
#X obj 1046 188 line;
#X msg 1046 168 \$1 10;
#X obj 455 93 pack 0 500;
#X floatatom 513 67 5 0 0 0 - - -;
#X msg 408 84 1 100;
#X obj 26 658 loadbang;
#X obj 26 686 tgl 15 0 empty empty empty 17 7 0 10 -262144 -1 -1 0
1;
#X msg 26 712 \; pd dsp \$1;
#X obj 332 545 adc~ 1;
#X obj 332 634 recorder_looper 1;
#X obj 431 537 tgl 15 0 empty empty empty 17 7 0 10 -262144 -1 -1 0
1;
#X obj 431 569 bng 15 250 50 0 empty empty empty 17 7 0 10 -262144
-1 -1;
#X obj 431 585 bng 15 250 50 0 empty empty empty 17 7 0 10 -262144
-1 -1;
#X obj 431 553 bng 15 250 50 0 empty empty empty 17 7 0 10 -262144
-1 -1;
#X obj 431 601 bng 15 250 50 0 empty empty empty 17 7 0 10 -262144
-1 -1;
#X obj 712 559 bng 15 250 50 0 empty empty empty 17 7 0 10 -262144
-1 -1;
#X obj 712 575 bng 15 250 50 0 empty empty empty 17 7 0 10 -262144
-1 -1;
#X obj 643 603 snare_looper;
#X obj 332 666 dac~ 1;
#X text 329 528 audio in;
#X text 330 684 audio out;
#X text -1 740 for recorder looper;
#X text 729 558 start snare;
#X text 729 576 stop snare;
#X text 448 537 start when recording is done;
#X text 449 553 start recording;
#X text 448 568 stop recording;
#X text 449 584 play;
#X text 448 601 stop playback;
#X text 358 504 RECORDER LOOPER;
#X text 671 535 SNARE LOOPER;
#X connect 0 0 14 0;
#X connect 3 0 10 0;
#X connect 4 0 1 0;
#X connect 5 0 6 0;
#X connect 6 0 7 0;
#X connect 7 0 8 0;
#X connect 9 0 15 0;
#X connect 10 0 1 0;
#X connect 11 0 9 0;
#X connect 12 0 9 2;
#X connect 13 0 14 0;
#X connect 14 0 40 0;
#X connect 14 0 66 0;
#X connect 16 0 36 1;
#X connect 19 0 29 0;
#X connect 24 0 30 0;
#X connect 31 0 0 0;
#X connect 32 0 13 0;
#X connect 33 0 92 0;
#X connect 35 0 51 0;
#X connect 36 0 37 0;
#X connect 36 0 38 0;
#X connect 36 0 38 1;
#X connect 36 0 39 0;
#X connect 40 0 36 0;
#X connect 41 0 67 0;
#X connect 42 0 68 0;
#X connect 43 0 44 0;
#X connect 44 0 35 0;
#X connect 45 0 3 0;
#X connect 46 0 9 1;
#X connect 51 0 34 0;
#X connect 54 0 51 0;
#X connect 55 0 54 0;
#X connect 59 0 54 1;
#X connect 60 0 54 2;
#X connect 61 0 54 3;
#X connect 66 0 40 1;
#X connect 70 0 81 0;
#X connect 75 0 77 0;
#X connect 79 0 66 2;
#X connect 80 0 40 2;
#X connect 82 0 66 1;
#X connect 83 0 66 3;
#X connect 85 0 86 0;
#X connect 86 0 95 0;
#X connect 90 0 100 0;
#X connect 90 0 91 0;
#X connect 91 0 98 0;
#X connect 92 0 13 1;
#X connect 92 0 0 1;
#X connect 93 1 97 0;
#X connect 96 0 94 0;
#X connect 97 0 96 0;
#X connect 98 0 89 1;
#X connect 99 0 98 1;
#X connect 100 0 89 0;
#X connect 101 0 102 0;
#X connect 102 0 103 0;
#X connect 104 0 105 0;
#X connect 105 0 114 0;
#X connect 106 0 105 1;
#X connect 107 0 105 3;
#X connect 108 0 105 4;
#X connect 109 0 105 2;
#X connect 110 0 105 5;
#X connect 111 0 113 0;
#X connect 112 0 113 1;
