#N canvas 27 112 1389 675 10;
#X obj 89 -331 inlet, f 6;
#X obj 216 -329 inlet;
#X obj 431 -331 inlet;
#X msg -25 -68 stop;
#X obj -189 -331 inlet~, f 7;
#X text -190 -346 Audio In;
#X obj 338 -331 inlet, f 6;
#X msg 18 -69 start;
#X obj -25 -7 bng 15 250 50 0 empty empty empty 17 7 0 10 -262144 -1
-1;
#X obj -94 -331 inlet, f 6;
#X text 107 -368 INPUTS;
#X obj 89 -305 bng 15 250 50 0 empty empty empty 17 7 0 10 -262144
-1 -1;
#X obj 216 -305 bng 15 250 50 0 empty empty empty 17 7 0 10 -262144
-1 -1;
#X obj 431 -305 bng 15 250 50 0 empty empty empty 17 7 0 10 -262144
-1 -1;
#X obj 338 -305 bng 15 250 50 0 empty empty empty 17 7 0 10 -262144
-1 -1;
#X obj -94 -306 bng 15 250 50 0 empty empty empty 17 7 0 10 -262144
-1 -1;
#X text 86 -348 start recording;
#X text 212 -347 stop recording;
#X obj -127 -211 r stopRecording\$0;
#X obj -69 -183 r startRecording\$0;
#X obj 89 -282 s startRecording\$0, f 19;
#X obj 216 -282 s stopRecording\$0, f 18;
#X obj 38 -41 r~ audioIn\$0;
#X obj -189 -282 s~ audioIn\$0, f 13;
#X obj 431 -282 s stopPlayback\$0;
#X obj 338 -282 s playLoop\$0, f 13;
#X obj -10 43 s recordingStopped\$0;
#X obj 18 -7 tabwrite~ sample\$0;
#X obj 468 -220 table sample\$0 480000;
#X obj -69 -157 t b b b;
#X obj -127 -100 spigot;
#X msg -117 -129 0;
#X msg -86 -129 1;
#X text -188 -76 timing gets messed up;
#X text -188 -62 if stopRecording gets;
#X text -189 -49 pressed again \; this stops it;
#X obj -94 -282 s playAfterRecording\$0, f 23;
#X obj -52 43 timer;
#X obj -49 130 /;
#X msg -74 100 1000;
#X obj -13 103 * 48;
#X obj 238 69 *~ 1;
#X obj -52 72 t b f f;
#X obj 238 30 phasor~;
#X obj 239 166 outlet~;
#X obj 259 144 *~;
#X obj 259 118 r~ audioIn\$0;
#X obj -13 130 s numSamples\$0;
#X obj 238 97 tabread4~ sample\$0;
#X obj 344 41 * 0;
#X obj 344 16 r stopPlayback\$0;
#X obj -49 168 s num\$0;
#X obj 253 -38 r num\$0;
#X obj 371 -38 r numSamples\$0;
#X obj 238 -13 f;
#X obj 238 -87 bng 15 250 50 0 empty empty empty 17 7 0 10 -262144
-1 -1;
#X obj 355 -13 f;
#X obj 251 -117 r playLoop\$0;
#X obj 238 -209 r recordingStopped\$0;
#X obj 271 -189 r playAfterRecording\$0;
#X obj 271 -162 tgl 15 0 empty empty empty 17 7 0 10 -262144 -1 -1
0 1;
#X obj 238 -138 spigot;
#X text 334 -350 play loop;
#X text -97 -346 start when recording is done;
#X text 429 -349 stop playback;
#X text -128 -237 RECORDER;
#X text 236 -240 PLAYER;
#X text 466 -240 10 sec loop @ sample rate of 48k/sec;
#X connect 0 0 11 0;
#X connect 1 0 12 0;
#X connect 2 0 13 0;
#X connect 3 0 8 0;
#X connect 3 0 27 0;
#X connect 4 0 23 0;
#X connect 6 0 14 0;
#X connect 7 0 27 0;
#X connect 8 0 26 0;
#X connect 8 0 37 1;
#X connect 9 0 15 0;
#X connect 11 0 20 0;
#X connect 12 0 21 0;
#X connect 13 0 24 0;
#X connect 14 0 25 0;
#X connect 15 0 36 0;
#X connect 18 0 30 0;
#X connect 18 0 31 0;
#X connect 19 0 29 0;
#X connect 22 0 27 0;
#X connect 29 0 32 0;
#X connect 29 1 37 0;
#X connect 29 2 7 0;
#X connect 30 0 3 0;
#X connect 31 0 30 1;
#X connect 32 0 30 1;
#X connect 37 0 42 0;
#X connect 38 0 51 0;
#X connect 39 0 38 0;
#X connect 40 0 47 0;
#X connect 41 0 48 0;
#X connect 42 0 39 0;
#X connect 42 1 38 1;
#X connect 42 2 40 0;
#X connect 43 0 41 0;
#X connect 45 0 44 0;
#X connect 46 0 45 0;
#X connect 48 0 44 0;
#X connect 49 0 41 1;
#X connect 50 0 49 0;
#X connect 52 0 54 1;
#X connect 53 0 56 1;
#X connect 54 0 43 0;
#X connect 55 0 54 0;
#X connect 55 0 56 0;
#X connect 56 0 41 1;
#X connect 57 0 55 0;
#X connect 58 0 61 0;
#X connect 59 0 60 0;
#X connect 60 0 61 1;
#X connect 61 0 55 0;
